<?xml version="1.0" standalone="no"?>
<!DOCTYPE svg PUBLIC "-//W3C//DTD SVG 20010904//EN"
 "http://www.w3.org/TR/2001/REC-SVG-20010904/DTD/svg10.dtd">
<svg version="1.0" xmlns="http://www.w3.org/2000/svg"
 width="2048.000000pt" height="2048.000000pt" viewBox="0 0 2048.000000 2048.000000"
 preserveAspectRatio="xMidYMid meet">

<g transform="translate(0.000000,2048.000000) scale(0.100000,-0.100000)"
fill="#000000" stroke="none">
<path d="M9935 19444 c-16 -2 -86 -9 -155 -15 -69 -6 -204 -24 -302 -40 -1591
-265 -2927 -1346 -3522 -2851 -214 -543 -317 -1087 -317 -1683 -1 -538 75
-1001 242 -1491 525 -1536 1810 -2679 3394 -3019 331 -71 602 -98 965 -98 393
0 687 33 1057 119 1037 241 1981 858 2628 1720 455 605 760 1335 870 2081 45
305 60 754 35 1053 -126 1522 -981 2865 -2310 3630 -567 326 -1210 526 -1880
585 -146 13 -616 19 -705 9z"/>
<path d="M9645 9204 c-33 -2 -159 -8 -280 -14 -407 -20 -922 -69 -1265 -120
-1180 -176 -2104 -445 -2960 -861 -638 -310 -1144 -651 -1620 -1091 -735 -679
-1248 -1557 -1409 -2414 -58 -306 -55 -197 -58 -2007 l-4 -1667 8191 0 8191 0
-4 1667 c-3 1810 0 1701 -58 2007 -184 979 -812 1957 -1729 2692 -1066 855
-2496 1420 -4224 1669 -393 56 -755 92 -1276 126 -154 10 -1362 21 -1495 13z"/>
</g>
</svg>
