<svg width="260" height="260" viewBox="0 0 260 260" fill="none" xmlns="http://www.w3.org/2000/svg">
<mask id="mask0_872_29" style="mask-type:alpha" maskUnits="userSpaceOnUse" x="0" y="0" width="260" height="260">
<rect width="260" height="260" rx="130" fill="#C4C4C4"/>
</mask>
<g mask="url(#mask0_872_29)">
<rect width="260" height="260" fill="#0A4736"/>
<path opacity="0.7" d="M74.4209 123.447C74.4209 92.524 99.4893 67.4557 130.413 67.4557V67.4557C161.336 67.4557 186.404 92.524 186.404 123.447V182.259H74.4209V123.447Z" fill="#38F6C9"/>
<path opacity="0.5" d="M36.0703 141.435C36.0703 120.254 53.2404 103.084 74.4208 103.084V103.084C95.6012 103.084 112.771 120.254 112.771 141.435V182.259H36.0703V141.435Z" fill="#38F6C9"/>
<path opacity="0.5" d="M148.054 141.435C148.054 120.254 165.224 103.084 186.404 103.084V103.084C207.585 103.084 224.755 120.254 224.755 141.435V182.259H148.054V141.435Z" fill="#38F6C9"/>
</g>
</svg>
