<svg width="624" height="375" fill="none" xmlns="http://www.w3.org/2000/svg"><path d="M443.168 245.276c-41.393 0-86.374-6.151-131.054-17.98-55.251-14.627-105.911-36.705-146.503-63.848l1.202-1.798c40.396 27.012 90.832 48.989 145.855 63.555 49.723 13.165 99.82 19.264 144.855 17.654l.078 2.161c-4.756.172-9.567.257-14.433.256Z" fill="#ADE780"/><path d="M392.336 248.521c-41.394 0-86.375-6.152-131.054-17.98-55.252-14.627-105.912-36.705-146.503-63.849l1.202-1.797c40.395 27.011 90.831 48.989 145.854 63.555 49.724 13.164 99.82 19.264 144.855 17.654l.079 2.161c-4.757.171-9.567.256-14.433.256Z" fill="#ADE780"/><path d="M171.249 128.189a16.783 16.783 0 0 0-16.764 16.764 787.635 787.635 0 0 0-6.36 141.647c.127 3.02.268 5.783.432 8.449.237 4.402.539 9.05.897 13.815.205 2.812.422 5.632.659 8.442.397 4.578.833 9.23 1.298 13.825.291 2.807.594 5.629.917 8.438a781.444 781.444 0 0 0 2.152 17.294 16.807 16.807 0 0 0 16.769 16.837H452.45a16.783 16.783 0 0 0 16.764-16.764l.013-.116a490.56 490.56 0 0 0 3.468-17.286 444.163 444.163 0 0 0 1.48-8.437 510.388 510.388 0 0 0 2.085-13.818c.406-2.931.773-5.769 1.091-8.439a493.197 493.197 0 0 0 2.14-22.254v-.001a491.73 491.73 0 0 0-10.264-141.516l-.013-.116a16.783 16.783 0 0 0-16.764-16.764H171.249Z" fill="url(#a)"/><path d="M322.767 199.957c-60.93 0-125.493-5.537-209.992-16.613h-.009a17.784 17.784 0 0 1-17.655-15.869 16.243 16.243 0 0 1-.11-1.973V114.67a2.726 2.726 0 0 1 .013-.326 17.885 17.885 0 0 1 17.831-17.52c147.01-19.988 236.314-19.986 398.075.004h.008a17.882 17.882 0 0 1 17.761 17.575c.009.088.013.178.01.267v50.832c.003.661-.034 1.322-.112 1.979a17.806 17.806 0 0 1-17.733 15.867c-69.889 11.071-127.172 16.609-188.087 16.609Z" fill="#F4F831"/><path d="M332.54 235.262h-36.968a17.766 17.766 0 0 1-17.747-17.747V83.207a17.768 17.768 0 0 1 17.747-17.748h36.968a17.77 17.77 0 0 1 17.748 17.748v134.308a17.766 17.766 0 0 1-17.748 17.747Z" fill="#CB4343"/><path d="M416.472 39.759a46.818 46.818 0 0 0-1.41-7.451 48.16 48.16 0 0 0-2.74-7.134 41.983 41.983 0 0 0-18.903-19.63C383.107.47 371.311.055 360.224 2.5a65.593 65.593 0 0 0-25.644 12.005 66.68 66.68 0 0 0-10.695 10.087c-3.285 3.942-9.396 14.77-9.836 15.774a65.661 65.661 0 0 0-14.593-20.875A68.606 68.606 0 0 0 274.32 4.3a63.318 63.318 0 0 0-15.406-3.131 49.038 49.038 0 0 0-16.526 1.44 41.632 41.632 0 0 0-23.564 17.227 43.45 43.45 0 0 0-7.359 26.503 44.562 44.562 0 0 0 3.031 13.84 52.691 52.691 0 0 0 3.312 6.948 54.05 54.05 0 0 0 4.404 6.31 49.88 49.88 0 0 0 24.504 16.317c10.275 3.176 21.174 3.279 31.739 1.789 10.85-1.531 21.293-5.044 31.512-8.89 1.363-.513 2.721-1.041 4.08-1.564 9.085 3.495 18.246 6.865 27.756 9.005a83.584 83.584 0 0 0 32.672 1.31 52.428 52.428 0 0 0 27.094-13.235 48.654 48.654 0 0 0 14.036-24.374 42.097 42.097 0 0 0 .867-14.036ZM275.634 81.094a72.848 72.848 0 0 1-17.67.103 54.831 54.831 0 0 1-12.288-3.27 38.632 38.632 0 0 1-20.704-20.556 41.338 41.338 0 0 1-2.505-9.107 37.673 37.673 0 0 1-.003-8.358 39.348 39.348 0 0 1 2.35-8.528 40.157 40.157 0 0 1 4.411-7.552 37.865 37.865 0 0 1 5.69-5.715 34.584 34.584 0 0 1 6.374-3.735 38.966 38.966 0 0 1 8.336-2.23 49.326 49.326 0 0 1 11.622.09 60.112 60.112 0 0 1 13.385 3.69 63.137 63.137 0 0 1 12.89 7.516 61.831 61.831 0 0 1 9.96 9.93 61.043 61.043 0 0 1 7.253 12.489 63.316 63.316 0 0 1 3.895 14.393l.008.072a65.864 65.864 0 0 0-.425 7.468c.002.962.044 1.922.093 2.88a5.74 5.74 0 0 0-1.127 1.518 181.812 181.812 0 0 1-23.116 7.33 100.657 100.657 0 0 1-8.429 1.572Zm130.018-32.831a41.342 41.342 0 0 1-2.506 9.109 38.42 38.42 0 0 1-20.703 20.555 54.887 54.887 0 0 1-12.288 3.27 72.909 72.909 0 0 1-17.702-.107c-10.434-1.492-20.5-4.785-30.346-8.461-.405-.152-.808-.311-1.213-.464a5.639 5.639 0 0 0-1.078-1.5 64.645 64.645 0 0 0-.323-10.438 63.242 63.242 0 0 1 3.891-14.366 61.005 61.005 0 0 1 7.252-12.488 61.884 61.884 0 0 1 9.961-9.931 63.13 63.13 0 0 1 12.889-7.515 60.135 60.135 0 0 1 13.386-3.69 49.38 49.38 0 0 1 11.622-.091 38.982 38.982 0 0 1 8.336 2.23 34.584 34.584 0 0 1 6.374 3.735 37.911 37.911 0 0 1 5.69 5.715 40.188 40.188 0 0 1 4.411 7.552 39.346 39.346 0 0 1 2.349 8.528c.309 2.777.308 5.58-.002 8.357Z" fill="url(#b)"/><path d="M201.532 241.211a6.49 6.49 0 1 0-.001-12.98 6.49 6.49 0 0 0 .001 12.98ZM248.038 224.987a6.49 6.49 0 1 0 0-12.98 6.49 6.49 0 0 0 0 12.98ZM227.489 275.82a6.489 6.489 0 1 0 0-12.977 6.489 6.489 0 0 0 0 12.977ZM420.004 241.211a6.49 6.49 0 1 0-.001-12.98 6.49 6.49 0 0 0 .001 12.98ZM373.498 224.987a6.489 6.489 0 1 0 0-12.978 6.49 6.49 0 1 0 0 12.978ZM394.047 275.82a6.489 6.489 0 1 0 0-12.977 6.489 6.489 0 0 0 0 12.977ZM425.412 354.773a6.49 6.49 0 1 0-.001-12.979 6.49 6.49 0 0 0 .001 12.979ZM441.635 308.266a6.489 6.489 0 1 0 0-12.977 6.489 6.489 0 0 0 0 12.977ZM390.802 328.816a6.49 6.49 0 1 0 0-12.98 6.49 6.49 0 0 0 0 12.98ZM239.386 354.773a6.49 6.49 0 1 0-.001-12.979 6.49 6.49 0 0 0 .001 12.979ZM255.609 308.266a6.489 6.489 0 1 0 0-12.977 6.489 6.489 0 0 0 0 12.977ZM204.776 328.816a6.49 6.49 0 1 0 0-12.98 6.49 6.49 0 0 0 0 12.98Z" fill="#63FFF6"/><path d="M175.82 141.964c-.748 1.183-2.561 1.011-3.579.271-1.414-1.026-.956-3.004.017-4.173 3.094-3.714 8.211.207 8.901 3.896a9.276 9.276 0 0 1-4.366 9.24c-3.53 2.092-8.115 1.043-11.15-1.461-6.331-5.222-4.607-15.679 2.425-19.457 4.488-2.411 10.161-1.353 14.582.667 4.977 2.273 9.256 5.758 13.859 8.663a77.264 77.264 0 0 0 33.376 11.397c2.075.212 2.06-3.034 0-3.245a74.233 74.233 0 0 1-19.178-4.617 84.253 84.253 0 0 1-17.233-9.459c-5.419-3.714-11.08-7.322-17.786-7.936a15.43 15.43 0 0 0-14.224 6.189 15.76 15.76 0 0 0-2.368 13.822 14.591 14.591 0 0 0 11.124 9.577 11.934 11.934 0 0 0 12.577-5.81c2.468-4.269 2.388-10.003-1.34-13.543a8.614 8.614 0 0 0-8.369-2.276 7.357 7.357 0 0 0-3.433 2.427 7.354 7.354 0 0 0-1.546 3.909c-.36 5.542 7.506 8.313 10.513 3.557 1.119-1.77-1.688-3.4-2.802-1.638ZM453.286 141.964c.748 1.183 2.562 1.011 3.58.271 1.414-1.026.956-3.004-.017-4.173-3.094-3.714-8.211.207-8.901 3.896a9.276 9.276 0 0 0 4.366 9.24c3.53 2.092 8.115 1.043 11.15-1.461 6.331-5.222 4.607-15.679-2.425-19.457-4.488-2.411-10.162-1.353-14.583.667-4.976 2.273-9.256 5.758-13.858 8.663a77.268 77.268 0 0 1-33.376 11.397c-2.075.212-2.06-3.034 0-3.245a74.243 74.243 0 0 0 19.178-4.617 84.327 84.327 0 0 0 17.233-9.459c5.418-3.714 11.08-7.322 17.786-7.936a15.432 15.432 0 0 1 14.223 6.189 15.762 15.762 0 0 1 2.368 13.822 14.583 14.583 0 0 1-4.27 6.289 14.58 14.58 0 0 1-6.853 3.288 11.937 11.937 0 0 1-7.219-.892 11.936 11.936 0 0 1-5.358-4.918c-2.468-4.269-2.388-10.003 1.34-13.543a8.614 8.614 0 0 1 8.369-2.276 7.37 7.37 0 0 1 4.979 6.336c.359 5.542-7.506 8.313-10.513 3.557-1.119-1.771 1.687-3.4 2.802-1.638h-.001Z" fill="#3F3D56"/><path opacity=".89" d="m98.637 200.053-2.102-7.123 17.321-7.855 2.102 7.123-17.32 7.855Z" fill="#E916AE"/><path opacity=".73" d="m310.306 56.14-7.32-3.5 6.285-19.807 7.32 3.5-6.285 19.808Z" fill="#E916AE"/><path opacity=".87" d="m505.865 184.638 4.781-2.275 7.463 11.322-4.781 2.274-7.463-11.321Z" fill="#E916AE"/><path opacity=".94" d="m351.03 234.169 4.524-.351 2.495 11.352-4.525.351-2.494-11.352Z" fill="#E916AE"/><path opacity=".88" d="m399.093 298.619-1.81-6.133 14.915-6.764 1.81 6.133-14.915 6.764Z" fill="#E916AE"/><defs><radialGradient id="a" cx="0" cy="0" r="1" gradientUnits="userSpaceOnUse" gradientTransform="matrix(0 122.755 -166.73 0 314.048 250.945)"><stop stop-color="#F7F7FC"/><stop offset="1" stop-color="#F96C6C"/></radialGradient><radialGradient id="b" cx="0" cy="0" r="1" gradientUnits="userSpaceOnUse" gradientTransform="matrix(0 45.7359 -102.651 0 314.058 46.736)"><stop stop-color="#F1F444"/><stop offset="1" stop-color="#1057C0"/></radialGradient></defs></svg>