<svg width="624" height="375" viewBox="0 0 624 375" fill="none" xmlns="http://www.w3.org/2000/svg">
    <path d="M443.168 245.276C401.775 245.276 356.794 239.125 312.114 227.296C256.863 212.669 206.203 190.591 165.611 163.448L166.813 161.65C207.209 188.662 257.645 210.639 312.668 225.205C362.391 238.37 412.488 244.469 457.523 242.859L457.601 245.02C452.845 245.192 448.034 245.277 443.168 245.276Z" fill="#ADE780"/>
    <path d="M392.336 248.521C350.942 248.521 305.961 242.369 261.282 230.541C206.03 215.914 155.37 193.836 114.779 166.692L115.981 164.895C156.376 191.906 206.812 213.884 261.835 228.45C311.559 241.614 361.655 247.714 406.69 246.104L406.769 248.265C402.012 248.436 397.202 248.521 392.336 248.521Z" fill="#ADE780"/>
    <path d="M171.249 128.189C166.804 128.194 162.543 129.962 159.4 133.105C156.257 136.247 154.49 140.509 154.485 144.953C148.111 191.881 145.982 239.289 148.125 286.6C148.252 289.62 148.393 292.383 148.557 295.049C148.794 299.451 149.096 304.099 149.454 308.864C149.659 311.676 149.876 314.496 150.113 317.306C150.51 321.884 150.946 326.536 151.411 331.131C151.702 333.938 152.005 336.76 152.328 339.569C152.95 345.088 153.653 350.745 154.48 356.863C154.472 361.319 156.233 365.596 159.378 368.754C162.523 371.911 166.792 373.69 171.249 373.7H452.45C456.895 373.695 461.156 371.927 464.299 368.784C467.442 365.642 469.209 361.38 469.214 356.936L469.227 356.82C470.48 351.113 471.646 345.298 472.695 339.534C473.256 336.495 473.74 333.736 474.175 331.097C474.964 326.294 475.666 321.644 476.26 317.279C476.666 314.348 477.033 311.51 477.351 308.84C477.875 304.47 478.348 299.954 478.799 295.032C479.046 292.357 479.272 289.594 479.491 286.586V286.585C482.929 239.165 479.472 191.497 469.227 145.069L469.214 144.953C469.209 140.508 467.442 136.247 464.299 133.105C461.156 129.962 456.895 128.194 452.45 128.189H171.249Z" fill="url(#paint0_radial_2_122)"/>
    <path d="M322.767 199.957C261.837 199.957 197.274 194.42 112.775 183.344H112.766C108.385 183.338 104.161 181.715 100.903 178.787C97.6454 175.858 95.5834 171.831 95.1114 167.475C95.0344 166.821 94.9974 166.162 95.0004 165.502V114.67C94.9984 114.561 95.0034 114.452 95.0144 114.344C95.1094 109.674 97.0284 105.226 100.36 101.952C103.693 98.6778 108.174 96.8368 112.845 96.8238C259.855 76.8358 349.159 76.8378 510.92 96.8278H510.928C515.597 96.8588 520.068 98.7148 523.387 101.999C526.706 105.283 528.609 109.734 528.689 114.403C528.698 114.491 528.702 114.581 528.699 114.67V165.502C528.702 166.163 528.665 166.824 528.587 167.481C528.109 171.847 526.034 175.882 522.76 178.811C519.487 181.74 515.246 183.356 510.854 183.348C440.965 194.419 383.682 199.957 322.767 199.957Z" fill="#F4F831"/>
    <path d="M332.54 235.262H295.572C290.867 235.257 286.356 233.385 283.029 230.058C279.702 226.731 277.83 222.22 277.825 217.515V83.2068C277.83 78.5008 279.702 73.9908 283.029 70.6628C286.356 67.3358 290.867 65.4648 295.572 65.4588H332.54C337.246 65.4648 341.757 67.3358 345.084 70.6628C348.411 73.9898 350.283 78.5008 350.288 83.2068V217.515C350.283 222.22 348.411 226.731 345.084 230.058C341.757 233.385 337.246 235.257 332.54 235.262Z" fill="#CB4343"/>
    <path d="M416.472 39.7588C416.204 37.2418 415.733 34.7488 415.062 32.3078C414.339 29.8608 413.423 27.4758 412.322 25.1738C408.379 16.7108 401.727 9.80383 393.419 5.54483C383.107 0.468833 371.311 0.0538349 360.224 2.49984C350.904 4.58683 342.152 8.68384 334.58 14.5048C330.654 17.4628 327.067 20.8458 323.885 24.5918C320.6 28.5338 314.489 39.3628 314.049 40.3658C310.594 32.5218 305.636 25.4298 299.456 19.4908C292.272 12.6718 283.697 7.48984 274.32 4.29984C269.335 2.61984 264.159 1.56884 258.914 1.16884C253.363 0.706841 247.775 1.19484 242.388 2.60984C232.712 5.31984 224.343 11.4378 218.824 19.8358C213.566 27.6398 210.983 36.9408 211.465 46.3388C211.731 51.0848 212.754 55.7568 214.496 60.1788C215.429 62.5718 216.536 64.8948 217.808 67.1268C219.124 69.3318 220.596 71.4408 222.212 73.4368C228.552 81.2168 237.092 86.9038 246.716 89.7538C256.991 92.9298 267.89 93.0328 278.455 91.5428C289.305 90.0118 299.748 86.4988 309.967 82.6528C311.33 82.1398 312.688 81.6118 314.047 81.0888C323.132 84.5838 332.293 87.9538 341.803 90.0938C352.501 92.6768 363.604 93.1228 374.475 91.4038C384.607 89.7408 394.028 85.1388 401.569 78.1688C408.545 71.6038 413.428 63.1238 415.605 53.7948C416.679 49.1978 416.972 44.4528 416.472 39.7588ZM275.634 81.0938C269.77 81.8448 263.836 81.8798 257.964 81.1968C253.755 80.5868 249.631 79.4898 245.676 77.9268C236.353 74.0448 228.922 66.6658 224.972 57.3708C223.792 54.4408 222.951 51.3848 222.467 48.2638C222.156 45.4858 222.155 42.6828 222.464 39.9058C222.924 36.9838 223.713 34.1228 224.814 31.3778C226.005 28.7078 227.484 26.1748 229.225 23.8258C230.913 21.7238 232.82 19.8078 234.915 18.1108C236.9 16.6418 239.037 15.3898 241.289 14.3758C243.976 13.3258 246.772 12.5788 249.625 12.1458C253.489 11.7178 257.39 11.7488 261.247 12.2368C265.836 12.9458 270.328 14.1838 274.632 15.9268C279.211 17.9138 283.537 20.4358 287.522 23.4418C291.209 26.3628 294.551 29.6938 297.482 33.3718C300.386 37.2338 302.82 41.4258 304.735 45.8608C306.596 50.4888 307.903 55.3198 308.63 60.2538L308.638 60.3258C308.355 62.8058 308.213 65.2988 308.213 67.7938C308.215 68.7558 308.257 69.7158 308.306 70.6748C307.849 71.1148 307.468 71.6278 307.179 72.1918C299.645 75.1468 291.923 77.5968 284.063 79.5228C281.277 80.1658 278.467 80.6898 275.634 81.0938ZM405.652 48.2628C405.167 51.3848 404.327 54.4418 403.146 57.3718C399.216 66.6788 391.778 74.0638 382.443 77.9268C378.488 79.4898 374.364 80.5868 370.155 81.1978C364.272 81.8808 358.327 81.8448 352.453 81.0898C342.019 79.5978 331.953 76.3048 322.107 72.6288C321.702 72.4768 321.299 72.3178 320.894 72.1648C320.62 71.6098 320.256 71.1028 319.816 70.6648C319.99 67.1828 319.882 63.6918 319.493 60.2268C320.22 55.3018 321.526 50.4798 323.384 45.8608C325.298 41.4258 327.733 37.2338 330.636 33.3728C333.568 29.6948 336.91 26.3628 340.597 23.4418C344.581 20.4358 348.908 17.9138 353.486 15.9268C357.791 14.1838 362.283 12.9458 366.872 12.2368C370.729 11.7488 374.63 11.7188 378.494 12.1458C381.347 12.5788 384.142 13.3258 386.83 14.3758C389.082 15.3898 391.219 16.6418 393.204 18.1108C395.299 19.8088 397.206 21.7238 398.894 23.8258C400.635 26.1758 402.114 28.7078 403.305 31.3778C404.406 34.1228 405.194 36.9838 405.654 39.9058C405.963 42.6828 405.962 45.4858 405.652 48.2628Z" fill="url(#paint1_radial_2_122)"/>
    <path d="M201.532 241.211C205.116 241.211 208.021 238.305 208.021 234.721C208.021 231.137 205.116 228.232 201.532 228.232C197.948 228.232 195.043 231.137 195.043 234.721C195.043 238.305 197.948 241.211 201.532 241.211Z" fill="#63FFF6"/>
    <path d="M248.038 224.987C251.622 224.987 254.528 222.082 254.528 218.498C254.528 214.914 251.622 212.009 248.038 212.009C244.454 212.009 241.549 214.914 241.549 218.498C241.549 222.082 244.454 224.987 248.038 224.987Z" fill="#63FFF6"/>
    <path d="M227.489 275.82C231.073 275.82 233.978 272.915 233.978 269.331C233.978 265.747 231.073 262.842 227.489 262.842C223.905 262.842 221 265.747 221 269.331C221 272.915 223.905 275.82 227.489 275.82Z" fill="#63FFF6"/>
    <path d="M420.004 241.211C423.588 241.211 426.493 238.305 426.493 234.721C426.493 231.137 423.588 228.232 420.004 228.232C416.42 228.232 413.515 231.137 413.515 234.721C413.515 238.305 416.42 241.211 420.004 241.211Z" fill="#63FFF6"/>
    <path d="M373.498 224.987C377.082 224.987 379.987 222.082 379.987 218.498C379.987 214.914 377.082 212.009 373.498 212.009C369.914 212.009 367.008 214.914 367.008 218.498C367.008 222.082 369.914 224.987 373.498 224.987Z" fill="#63FFF6"/>
    <path d="M394.047 275.82C397.631 275.82 400.536 272.915 400.536 269.331C400.536 265.747 397.631 262.842 394.047 262.842C390.463 262.842 387.558 265.747 387.558 269.331C387.558 272.915 390.463 275.82 394.047 275.82Z" fill="#63FFF6"/>
    <path d="M425.412 354.773C428.996 354.773 431.901 351.868 431.901 348.284C431.901 344.7 428.996 341.794 425.412 341.794C421.828 341.794 418.923 344.7 418.923 348.284C418.923 351.868 421.828 354.773 425.412 354.773Z" fill="#63FFF6"/>
    <path d="M441.635 308.266C445.219 308.266 448.124 305.361 448.124 301.777C448.124 298.193 445.219 295.288 441.635 295.288C438.051 295.288 435.146 298.193 435.146 301.777C435.146 305.361 438.051 308.266 441.635 308.266Z" fill="#63FFF6"/>
    <path d="M390.802 328.816C394.386 328.816 397.292 325.91 397.292 322.327C397.292 318.743 394.386 315.837 390.802 315.837C387.218 315.837 384.313 318.743 384.313 322.327C384.313 325.91 387.218 328.816 390.802 328.816Z" fill="#63FFF6"/>
    <path d="M239.386 354.773C242.97 354.773 245.875 351.868 245.875 348.284C245.875 344.7 242.97 341.794 239.386 341.794C235.802 341.794 232.897 344.7 232.897 348.284C232.897 351.868 235.802 354.773 239.386 354.773Z" fill="#63FFF6"/>
    <path d="M255.609 308.266C259.193 308.266 262.098 305.361 262.098 301.777C262.098 298.193 259.193 295.288 255.609 295.288C252.025 295.288 249.12 298.193 249.12 301.777C249.12 305.361 252.025 308.266 255.609 308.266Z" fill="#63FFF6"/>
    <path d="M204.776 328.816C208.36 328.816 211.266 325.91 211.266 322.327C211.266 318.743 208.36 315.837 204.776 315.837C201.193 315.837 198.287 318.743 198.287 322.327C198.287 325.91 201.193 328.816 204.776 328.816Z" fill="#63FFF6"/>
    <path d="M175.82 141.964C175.072 143.147 173.259 142.975 172.241 142.235C170.827 141.209 171.285 139.231 172.258 138.062C175.352 134.348 180.469 138.269 181.159 141.958C181.416 143.756 181.139 145.591 180.363 147.233C179.587 148.876 178.345 150.254 176.793 151.198C173.263 153.29 168.678 152.241 165.643 149.737C159.312 144.515 161.036 134.058 168.068 130.28C172.556 127.869 178.229 128.927 182.65 130.947C187.627 133.22 191.906 136.705 196.509 139.61C206.607 145.931 218.029 149.832 229.885 151.007C231.96 151.219 231.945 147.973 229.885 147.762C223.315 147.083 216.865 145.53 210.707 143.145C204.613 140.675 198.83 137.501 193.474 133.686C188.055 129.972 182.394 126.364 175.688 125.75C172.982 125.434 170.24 125.84 167.742 126.927C165.244 128.014 163.078 129.744 161.464 131.939C160.029 133.904 159.069 136.174 158.658 138.572C158.247 140.97 158.397 143.431 159.096 145.761C159.939 148.198 161.412 150.368 163.366 152.05C165.32 153.733 167.685 154.867 170.22 155.338C172.66 155.799 175.184 155.487 177.438 154.446C179.693 153.404 181.566 151.685 182.797 149.528C185.265 145.259 185.185 139.525 181.457 135.985C180.388 134.899 179.05 134.116 177.58 133.716C176.109 133.316 174.559 133.314 173.088 133.709C171.732 134.167 170.539 135.01 169.655 136.136C168.77 137.261 168.233 138.62 168.109 140.045C167.749 145.587 175.615 148.358 178.622 143.602C179.741 141.832 176.934 140.202 175.82 141.964Z" fill="#3F3D56"/>
    <path d="M453.286 141.964C454.034 143.147 455.848 142.975 456.866 142.235C458.28 141.209 457.822 139.231 456.849 138.062C453.755 134.348 448.638 138.269 447.948 141.958C447.691 143.756 447.968 145.591 448.744 147.233C449.52 148.876 450.761 150.254 452.314 151.198C455.844 153.29 460.429 152.241 463.464 149.737C469.795 144.515 468.071 134.058 461.039 130.28C456.551 127.869 450.877 128.927 446.456 130.947C441.48 133.22 437.2 136.705 432.598 139.61C422.5 145.931 411.077 149.832 399.222 151.007C397.147 151.219 397.162 147.973 399.222 147.762C405.792 147.083 412.241 145.53 418.4 143.145C424.493 140.675 430.277 137.5 435.633 133.686C441.051 129.972 446.713 126.364 453.419 125.75C456.125 125.434 458.866 125.84 461.365 126.927C463.863 128.014 466.029 129.744 467.642 131.939C469.077 133.904 470.038 136.174 470.449 138.572C470.86 140.97 470.71 143.431 470.01 145.761C469.168 148.198 467.694 150.368 465.74 152.05C463.786 153.733 461.422 154.867 458.887 155.338C456.446 155.799 453.923 155.487 451.668 154.446C449.414 153.404 447.541 151.685 446.31 149.528C443.842 145.259 443.922 139.525 447.65 135.985C448.719 134.899 450.057 134.116 451.527 133.716C452.997 133.316 454.548 133.314 456.019 133.709C457.375 134.167 458.568 135.01 459.452 136.136C460.336 137.261 460.873 138.62 460.998 140.045C461.357 145.587 453.492 148.358 450.485 143.602C449.366 141.831 452.172 140.202 453.287 141.964H453.286Z" fill="#3F3D56"/>
    <path opacity="0.89" d="M98.6374 200.053L96.5354 192.93L113.856 185.075L115.958 192.198L98.6374 200.053Z" fill="#E916AE"/>
    <path opacity="0.73" d="M310.306 56.1408L302.986 52.6398L309.271 32.8328L316.591 36.3338L310.306 56.1408Z" fill="#E916AE"/>
    <path opacity="0.87" d="M505.865 184.638L510.646 182.363L518.109 193.685L513.328 195.959L505.865 184.638Z" fill="#E916AE"/>
    <path opacity="0.94" d="M351.03 234.169L355.554 233.818L358.049 245.17L353.524 245.521L351.03 234.169Z" fill="#E916AE"/>
    <path opacity="0.88" d="M399.093 298.619L397.283 292.486L412.198 285.722L414.008 291.855L399.093 298.619Z" fill="#E916AE"/>
    <defs>
        <radialGradient id="paint0_radial_2_122" cx="0" cy="0" r="1" gradientUnits="userSpaceOnUse" gradientTransform="translate(314.048 250.945) rotate(90) scale(122.755 166.73)">
            <stop stop-color="#F7F7FC"/>
            <stop offset="1" stop-color="#F96C6C"/>
        </radialGradient>
        <radialGradient id="paint1_radial_2_122" cx="0" cy="0" r="1" gradientUnits="userSpaceOnUse" gradientTransform="translate(314.058 46.7358) rotate(90) scale(45.7359 102.651)">
            <stop stop-color="#F1F444"/>
            <stop offset="1" stop-color="#1057C0"/>
        </radialGradient>
    </defs>
</svg>
