<svg xmlns="http://www.w3.org/2000/svg" version="1.1" xmlns:xlink="http://www.w3.org/1999/xlink" xmlns:svgjs="http://svgjs.com/svgjs" width="1000" height="1000"><rect width="1000" height="1000" rx="500" ry="500" fill="#ffffff"></rect><g transform="matrix(6.410256410256411,0,0,6.410256410256411,-0.000592066691524451,182.55488501450952)"><svg xmlns="http://www.w3.org/2000/svg" version="1.1" xmlns:xlink="http://www.w3.org/1999/xlink" xmlns:svgjs="http://svgjs.com/svgjs" width="156" height="99"><svg width="156" height="99" viewBox="0 0 156 99" fill="none" xmlns="http://www.w3.org/2000/svg">
<path d="M77.6063 42C77.2289 40.0609 76.2523 29.0048 76.1286 28.0665C76.0055 27.1283 75.8168 26.051 75.5625 24.8346C75.3075 23.619 74.9725 22.5112 74.5575 21.5111C74.1418 20.5118 73.7809 19.6809 73.4746 19.0185C73.1683 18.3568 72.9181 17.835 72.7239 17.4529C72.5298 17.0708 72.3722 16.7599 72.2512 16.5203C72.2423 16.5203 72.2337 16.5203 72.2255 16.5203C72.2255 16.5112 72.2255 16.5022 72.2255 16.4932C72.2173 16.4932 72.2088 16.4932 72.1999 16.4932C72.1999 16.4849 72.1999 16.4762 72.1999 16.4672C72.1917 16.4672 72.1835 16.4672 72.1753 16.4672C71.9551 16.3164 71.8478 16.2425 71.8533 16.2455C71.8581 16.2493 71.8673 16.2554 71.881 16.2637C71.6061 16.0331 71.4684 15.9151 71.4677 15.9098C71.4677 15.9038 71.4694 15.9038 71.4728 15.9098C71.3525 15.7613 70.8917 15.4204 70.0905 14.8868C69.2892 14.3532 68.6455 13.9399 68.1595 13.6467C67.6734 13.3536 67.0177 13.1154 66.1926 12.9323C65.3674 12.7491 64.5938 12.427 63.8719 11.9658C63.1506 11.5053 62.0872 11.2185 60.6816 11.1055C59.276 10.9932 58.165 10.9133 57.3487 10.8658C56.5317 10.8184 55.8023 10.8685 55.1603 11.0162C54.5184 11.1646 54.0319 11.3331 53.701 11.5215C53.3708 11.7099 53.1281 11.847 52.9729 11.9329C52.8171 12.0188 52.4927 12.4141 51.9998 13.1188C52.3129 13.1873 53.2092 13.3219 54.6886 13.5223C56.168 13.7235 57.294 13.8449 58.0666 13.8864C58.8398 13.9286 59.4588 14.0212 59.9237 14.1644C60.3886 14.3076 60.8313 14.4618 61.2517 14.6268C61.6715 14.7919 62.5483 15.1091 63.8821 15.5786C65.216 16.0481 66.2479 16.4555 66.9781 16.8006C67.7082 17.1458 68.397 17.3432 69.0445 17.393C69.6926 17.4427 70.1875 17.4759 70.5294 17.4924C70.8712 17.509 71.1262 17.5365 71.2944 17.575C71.4619 17.6142 71.5631 17.6108 71.5979 17.5648C71.6335 17.5188 71.694 17.4498 71.7794 17.3579C71.8649 17.2667 71.9169 17.1864 71.9353 17.1171C71.9538 17.0478 71.9551 17.0399 71.9394 17.0934C71.923 17.1461 71.9534 17.0949 72.0307 16.9396C72.1073 16.7844 72.2132 16.5225 72.3486 16.154C72.484 15.7855 72.9659 14.8415 73.7945 13.3222C74.6231 11.8029 75.3157 10.5697 75.8722 9.62238C76.4287 8.67583 77.0067 7.77258 77.6063 6.91269C78.2065 6.05281 78.6646 5.42992 78.9804 5.04407C79.2963 4.65897 79.5783 4.34472 79.8265 4.1013C80.074 3.85713 80.3331 3.65025 80.6038 3.48068C80.8752 3.31112 81.0424 3.20676 81.1053 3.16758C81.1688 3.12914 81.1904 3.1171 81.1699 3.13142C81.15 3.14574 81.1436 3.14721 81.1504 3.13591C81.1579 3.12536 81.2437 3.09148 81.4078 3.03421C81.5719 2.97769 81.6983 2.99119 81.7872 3.07485C81.8761 3.1585 81.938 3.32094 81.9728 3.5621C82.0084 3.80401 82.0087 4.01236 81.9739 4.1872C81.939 4.36129 81.7212 4.73698 81.3206 5.31426C80.9193 5.89229 80.4551 6.65158 79.928 7.5921C79.4002 8.53262 78.8314 9.48333 78.2216 10.4442C77.6118 11.4051 76.7476 12.5977 75.6291 14.022C74.5107 15.4471 73.3276 16.7437 72.0799 17.9118C72.0628 17.8297 72.0461 17.7476 72.0297 17.6654" stroke="#296E2F" stroke-width="5" stroke-linecap="round" stroke-linejoin="round"></path>
<path d="M70.0866 81.6614C70.0381 85.2509 67.3127 88.1245 63.9993 88.0798C60.6859 88.035 58.0392 85.0889 58.0877 81.4993C58.1362 77.9098 60.6859 73.4553 63.9993 73.5C67.3127 73.5448 70.1351 78.0719 70.0866 81.6614Z" fill="#296E2F"></path>
<path d="M97.0865 81.2398C97.038 84.8293 94.3126 87.7029 90.9992 87.6581C87.6858 87.6134 85.0391 84.6672 85.0876 81.0777C85.136 77.4882 87.6858 73.0336 90.9992 73.0784C94.3126 73.1231 97.1349 77.6502 97.0865 81.2398Z" fill="#296E2F"></path>
<path d="M34.9999 92.681C35.0025 92.4725 35.1678 91.0603 35.4956 88.4445C35.824 85.8279 36.3314 83.2387 37.0176 80.677C37.7038 78.1152 38.3144 76.0826 38.8494 74.5792C39.3844 73.0758 40.0706 71.4174 40.9081 69.604C41.7455 67.7906 42.6363 66.1415 43.5803 64.6568C44.5251 63.1722 45.3459 61.9835 46.0427 61.0908C46.7403 60.1988 47.3329 59.4458 47.8206 58.8318C48.3089 58.2177 49.201 57.286 50.4969 56.0365C51.7933 54.787 53.0295 53.7182 54.2055 52.8302C55.3807 51.9415 56.6669 51.0803 58.064 50.2464C59.4617 49.4125 61.0773 48.5983 62.9108 47.8039C64.7443 47.0101 66.7134 46.3853 68.818 45.9297C70.9226 45.4733 72.6642 45.197 74.0426 45.1008C75.4217 45.0039 76.6603 44.9769 77.7582 45.0196C78.8568 45.0624 79.8482 45.1228 80.7323 45.201C81.6157 45.2785 82.8506 45.4723 84.4369 45.7823C86.0232 46.0924 87.842 46.6085 89.8934 47.3308C91.9447 48.0531 93.9387 49.0143 95.8755 50.2143C97.8122 51.4144 99.243 52.3839 100.168 53.1229C101.093 53.8619 102.048 54.6927 103.034 55.6155C104.02 56.5376 105.029 57.6043 106.062 58.8157C107.095 60.0271 108.108 61.3357 109.102 62.7416C110.095 64.1467 111.109 65.8202 112.143 67.7619C113.177 69.7042 114.031 71.515 114.705 73.1941C115.38 74.8739 115.877 76.2229 116.197 77.2412C116.517 78.2602 116.785 79.0921 117.001 79.7368C117.216 80.3823 117.572 81.6308 118.069 83.4823C118.566 85.3345 118.978 87.2788 119.304 89.3154C119.63 91.352 119.862 92.9136 120 94" stroke="#296E2F" stroke-width="6" stroke-linecap="round" stroke-linejoin="round"></path>
<path d="M70.0866 81.6614C70.0381 85.2509 67.3127 88.1245 63.9993 88.0798C60.6859 88.035 58.0392 85.0889 58.0877 81.4993C58.1362 77.9098 60.6859 73.4553 63.9993 73.5C67.3127 73.5448 70.1351 78.0719 70.0866 81.6614Z" fill="#296E2F"></path>
<path d="M67.0356 85.355C67.0159 86.8158 65.8766 87.9848 64.4911 87.9661C63.1055 87.9474 61.9982 86.748 62.018 85.2873C62.0377 83.8265 63.1033 82.0141 64.4888 82.0328C65.8744 82.0515 67.0553 83.8943 67.0356 85.355Z" fill="white"></path>
<path d="M97.0865 81.2398C97.038 84.8293 94.3126 87.7029 90.9992 87.6581C87.6858 87.6134 85.0391 84.6672 85.0876 81.0777C85.136 77.4882 87.6858 73.0336 90.9992 73.0784C94.3126 73.1231 97.1349 77.6502 97.0865 81.2398Z" fill="#296E2F"></path>
<path d="M92.9543 85.4281C92.9341 86.9219 91.8168 88.118 90.4587 88.0996C89.1007 88.0813 88.0161 86.8555 88.0363 85.3616C88.0564 83.8678 89.1019 82.0138 90.46 82.0321C91.818 82.0505 92.9745 83.9342 92.9543 85.4281Z" fill="white"></path>
<path d="M1.00722 93.9453L154.993 96.0508" stroke="#296E2F" stroke-width="5"></path>
</svg></svg></g></svg>