<?xml version="1.0" standalone="no"?>
<!DOCTYPE svg PUBLIC "-//W3C//DTD SVG 20010904//EN"
 "http://www.w3.org/TR/2001/REC-SVG-20010904/DTD/svg10.dtd">
<svg version="1.0" xmlns="http://www.w3.org/2000/svg"
 width="156.000000pt" height="156.000000pt" viewBox="0 0 156.000000 156.000000"
 preserveAspectRatio="xMidYMid meet">
<metadata>
Created by potrace 1.14, written by Peter Selinger 2001-2017
</metadata>
<g transform="translate(0.000000,156.000000) scale(0.100000,-0.100000)"
fill="#000000" stroke="none">
<path d="M788 1260 c-9 -6 -30 -32 -47 -60 l-30 -49 -47 21 c-82 36 -182 11
-172 -42 2 -9 25 -19 63 -27 128 -26 154 -36 164 -63 6 -14 14 -62 19 -106 l8
-82 -46 -6 c-71 -9 -165 -59 -226 -120 -67 -67 -118 -170 -142 -285 l-17 -81
-152 0 -153 0 0 -29 0 -28 438 -7 c240 -3 587 -9 770 -12 l332 -7 0 32 0 31
-159 0 -159 0 -6 45 c-9 54 -45 165 -74 221 -60 117 -165 204 -281 232 l-69
17 -7 80 c-4 44 -12 96 -19 116 -12 35 -11 39 30 100 46 67 52 87 32 107 -14
14 -27 15 -50 2z m38 -481 c150 -27 255 -136 313 -323 11 -37 21 -79 21 -93 0
-25 -2 -25 -46 -19 -26 3 -199 6 -385 6 l-339 0 0 28 c0 41 26 128 55 188 54
110 160 196 263 214 26 4 50 8 53 9 3 0 32 -4 65 -10z"/>
<path d="M601 514 c-26 -33 -27 -85 -3 -107 23 -21 50 -24 33 -4 -8 10 -7 18
2 31 12 16 14 16 26 2 11 -13 11 -19 1 -31 -7 -8 -9 -15 -4 -15 32 1 56 52 42
90 -23 62 -64 76 -97 34z"/>
<path d="M866 518 c-26 -37 -15 -118 16 -118 6 0 8 3 5 6 -3 4 -1 16 5 27 10
20 11 20 24 3 7 -10 10 -25 6 -34 -6 -16 -4 -16 18 -1 31 20 39 79 15 115 -20
32 -68 33 -89 2z"/>
</g>
</svg>
