<?xml version="1.0" standalone="no"?>
<!DOCTYPE svg PUBLIC "-//W3C//DTD SVG 20010904//EN"
 "http://www.w3.org/TR/2001/REC-SVG-20010904/DTD/svg10.dtd">
<svg version="1.0" xmlns="http://www.w3.org/2000/svg"
 width="260.000000pt" height="260.000000pt" viewBox="0 0 260.000000 260.000000"
 preserveAspectRatio="xMidYMid meet">
<metadata>
Created by potrace 1.14, written by Peter Selinger 2001-2017
</metadata>
<g transform="translate(0.000000,260.000000) scale(0.100000,-0.100000)"
fill="#000000" stroke="none">
<path d="M1180 2590 c-627 -61 -1115 -553 -1170 -1182 -37 -420 138 -836 461
-1102 313 -257 713 -355 1106 -272 343 73 653 298 837 606 164 276 219 618
152 937 -134 631 -741 1075 -1386 1013z m243 -675 c148 -31 306 -150 375 -282
33 -62 34 -63 76 -63 94 0 213 -55 277 -128 18 -20 46 -66 63 -102 l31 -65 3
-246 3 -246 -287 -6 c-367 -9 -951 -9 -1318 0 l-287 6 3 251 c3 248 3 252 30
308 60 128 185 216 320 226 l68 5 27 56 c40 80 160 198 246 239 119 59 242 74
370 47z"/>
</g>
</svg>
